<?xml version="1.0" encoding="utf-8"?>
<!-- Generator: Adobe Illustrator 26.3.1, SVG Export Plug-In . SVG Version: 6.00 Build 0)  -->
<svg version="1.1" id="Layer_1" xmlns="http://www.w3.org/2000/svg" xmlns:xlink="http://www.w3.org/1999/xlink" x="0px" y="0px"
	 viewBox="0 0 568.1 500.2" style="enable-background:new 0 0 568.1 500.2;" xml:space="preserve">
<style type="text/css">
	.st0{fill:#FFFFFF;}
</style>
<path class="st0" d="M123.2,33.7c65.1,48.9,135.2,148,160.9,201.2C309.8,181.7,379.9,82.6,445,33.7C492-1.6,568.1-28.9,568.1,58
	c0,17.3-9.9,145.7-15.8,166.6c-20.3,72.5-94.2,90.9-159.9,79.7c114.9,19.6,144.1,84.3,81,149.1c-119.9,123-172.3-30.9-185.7-70.3
	c-2.5-7.2-3.6-10.6-3.6-7.7c0-2.9-1.2,0.5-3.6,7.7c-13.4,39.4-65.8,193.3-185.7,70.3c-63.1-64.8-33.9-129.5,81-149.1
	c-65.7,11.2-139.6-7.3-159.9-79.7C10,203.7,0,75.4,0,58C0-28.8,76.2-1.5,123.2,33.7z"/>
</svg>
