<svg xmlns="http://www.w3.org/2000/svg" xmlns:xlink="http://www.w3.org/1999/xlink" viewBox="0 0 1246.11 257.81">
<defs>
	<style>
		.cls-1{fill:none;}.cls-2{fill:#039;}.cls-3{font-size:63.6px;}.cls-14,.cls-27,.cls-3,.cls-38,.cls-39,.cls-40{fill:#fff;}.cls-14,.cls-3{font-family:Montserrat-SemiBold, Montserrat;font-weight:600;}.cls-4{letter-spacing:-0.01em;}.cls-5{letter-spacing:-0.05em;}.cls-6{font-size:47.11px;}.cls-7{letter-spacing:-0.04em;}.cls-8{letter-spacing:-0.03em;}.cls-9{letter-spacing:-0.01em;}.cls-10{letter-spacing:0em;}.cls-11{letter-spacing:-0.01em;}.cls-12{opacity:0.5;}.cls-13{clip-path:url(#clip-path);}.cls-14{font-size:24px;}.cls-14,.cls-24{letter-spacing:-0.02em;}.cls-15{letter-spacing:-0.03em;}.cls-16{letter-spacing:-0.02em;}.cls-17{letter-spacing:-0.02em;}.cls-18{letter-spacing:-0.02em;}.cls-19{letter-spacing:-0.03em;}.cls-20{letter-spacing:-0.02em;}.cls-21{letter-spacing:-0.02em;}.cls-22{letter-spacing:-0.02em;}.cls-23{letter-spacing:-0.03em;}.cls-25{letter-spacing:-0.02em;}.cls-26{clip-path:url(#clip-path-2);}.cls-27{font-size:26px;letter-spacing:0.01em;}.cls-27,.cls-39{font-family:Apple-Chancery, Apple Chancery;}.cls-28{letter-spacing:-0.02em;}.cls-29{letter-spacing:-0.03em;}.cls-30{fill:url(#linear-gradient);}.cls-31{fill:url(#linear-gradient-2);}.cls-32{fill:url(#linear-gradient-3);}.cls-33{fill:url(#linear-gradient-4);}.cls-34{fill:url(#linear-gradient-5);}.cls-35{fill:url(#linear-gradient-6);}.cls-36{fill:url(#linear-gradient-7);}.cls-37{fill:url(#linear-gradient-8);}.cls-39{font-size:47.28px;}.cls-40{font-size:80px;font-family:Montserrat-Regular, Montserrat;}
		
		/* montserrat-regular - latin */
		@font-face {
		  font-display: swap; /* Check https://developer.mozilla.org/en-US/docs/Web/CSS/@font-face/font-display for other options. */
		  font-family: 'Montserrat';
		  font-style: normal;
		  font-weight: 400;
		  src: url('../fonts/montserrat-v26-latin-regular.woff2') format('woff2'), /* Chrome 36+, Opera 23+, Firefox 39+, Safari 12+, iOS 10+ */
		       url('../fonts/montserrat-v26-latin-regular.ttf') format('truetype'); /* Chrome 4+, Firefox 3.5+, IE 9+, Safari 3.1+, iOS 4.2+, Android Browser 2.2+ */
		}
		
		/* montserrat-600 - latin */
		@font-face {
		  font-display: swap; /* Check https://developer.mozilla.org/en-US/docs/Web/CSS/@font-face/font-display for other options. */
		  font-family: 'Montserrat';
		  font-style: normal;
		  font-weight: 600;
		  src: url('../fonts/montserrat-v26-latin-600.woff2') format('woff2'), /* Chrome 36+, Opera 23+, Firefox 39+, Safari 12+, iOS 10+ */
		       url('../fonts/montserrat-v26-latin-600.ttf') format('truetype'); /* Chrome 4+, Firefox 3.5+, IE 9+, Safari 3.1+, iOS 4.2+, Android Browser 2.2+ */
		}
		
		/* apple-chancery */
		@font-face {
		  font-display: swap; /* Check https://developer.mozilla.org/en-US/docs/Web/CSS/@font-face/font-display for other options. */
		  font-family: 'Apple-Chancery';
		  font-style: normal;
		  font-weight: 400;
		  src: url('../fonts/apple-chancery.ttf') format('truetype'); /* Chrome 4+, Firefox 3.5+, IE 9+, Safari 3.1+, iOS 4.2+, Android Browser 2.2+ */
		}
	</style>
<clipPath id="clip-path"><polygon class="cls-1" points="400.82 110.94 387.89 104 387.92 88.27 369.4 73.16 367.69 54.95 361.5 49.44 340.07 27.02 303.2 25.95 295.26 4.6 4.03 4.6 4.03 257.81 281.47 257.81 300.69 233.15 341.31 234.28 351.33 203.19 377.84 193.6 387.92 186.25 383.22 158.36 381.68 141.16 387.89 137.27 400.85 120.59 400.82 110.94"/></clipPath><clipPath id="clip-path-2"><polygon class="cls-1" points="295.65 2.92 304.6 30.2 351.36 29.8 359.46 46.66 361.5 49.44 387.92 57.16 385.34 89.21 387.89 104 406.17 109.76 387.89 131.2 386.07 141.09 387.92 176.58 387.92 176.58 387.92 186.25 387.92 188.46 381.03 201.24 351.33 203.19 351.36 217.26 343.59 228.01 291.49 234.28 301.63 254.56 599.78 254.62 599.78 2.92 295.65 2.92"/></clipPath><linearGradient id="linear-gradient" x1="235.55" y1="237.28" x2="235.55" y2="206.19" gradientUnits="userSpaceOnUse"><stop offset="0" stop-color="#cbdff3"/><stop offset="0.06" stop-color="#c2dbf1"/><stop offset="0.17" stop-color="#a8d1ed"/><stop offset="0.31" stop-color="#7fc1e6"/><stop offset="0.46" stop-color="#46aadd"/><stop offset="0.57" stop-color="#1c9ad6"/><stop offset="0.87" stop-color="#0c75ba"/><stop offset="0.94" stop-color="#0b74b8"/><stop offset="0.96" stop-color="#096fb1"/><stop offset="0.98" stop-color="#0566a6"/><stop offset="0.99" stop-color="#005c97"/></linearGradient><linearGradient id="linear-gradient-2" x1="291.49" y1="252.4" x2="291.49" y2="221.31" xlink:href="#linear-gradient"/><linearGradient id="linear-gradient-3" x1="351.36" y1="234.28" x2="351.36" y2="203.19" xlink:href="#linear-gradient"/><linearGradient id="linear-gradient-4" x1="387.89" y1="193.6" x2="387.89" y2="162.52" xlink:href="#linear-gradient"/><linearGradient id="linear-gradient-5" x1="400.85" y1="142.03" x2="400.85" y2="110.94" xlink:href="#linear-gradient"/><linearGradient id="linear-gradient-6" x1="387.89" y1="90.46" x2="387.89" y2="59.37" xlink:href="#linear-gradient"/><linearGradient id="linear-gradient-7" x1="351.36" y1="49.49" x2="351.36" y2="18.4" xlink:href="#linear-gradient"/><linearGradient id="linear-gradient-8" x1="295.68" y1="31.79" x2="295.68" y2="0.7" xlink:href="#linear-gradient"/></defs><g id="Background"><rect id="Background_wide" data-name="Background wide" class="cls-2" width="1246.11" height="255.66"/></g><g id="Name"><text id="Side" class="cls-3" transform="translate(595.36 124.26)">EURO<tspan class="cls-4" x="192.82" y="0">P</tspan><tspan x="238.36" y="0">EAN </tspan><tspan class="cls-5" x="397.67" y="0">P</tspan><tspan x="440.98" y="0">A</tspan><tspan class="cls-4" x="488.61" y="0">RT</tspan><tspan x="572.11" y="0">Y</tspan><tspan class="cls-6"><tspan x="0" y="49.46">FUNDING OBSER</tspan><tspan class="cls-7" x="417.94" y="49.46">V</tspan><tspan class="cls-8" x="450.54" y="49.46">A</tspan><tspan class="cls-9" x="484.18" y="49.46">T</tspan><tspan class="cls-10" x="512.07" y="49.46">O</tspan><tspan class="cls-11" x="551.73" y="49.46">R</tspan><tspan x="585.7" y="49.46">Y</tspan></tspan></text></g><g id="Logo_background" data-name="Logo background"><g id="Morse_Morse" data-name="Morse Morse" class="cls-12"><g class="cls-13"><g class="cls-12"><text class="cls-14" transform="translate(4.03 17.81)">·--<tspan class="cls-15" x="23.85" y="0">· </tspan><tspan x="36.09" y="0">--</tspan><tspan class="cls-16" x="53.61" y="0">- </tspan><tspan class="cls-17" x="68.28" y="0">·-·</tspan><tspan class="cls-16" x="89.71" y="0">· </tspan><tspan x="101.95" y="0">·</tspan><tspan class="cls-15" x="108.28" y="0">· - </tspan><tspan x="135.19" y="0">·</tspan><tspan class="cls-16" x="141.52" y="0">· </tspan><tspan class="cls-18" x="153.76" y="0">-·-</tspan><tspan class="cls-16" x="177.62" y="0">· </tspan><tspan class="cls-18" x="189.86" y="0">·</tspan><tspan class="cls-19" x="196.19" y="0">- </tspan><tspan x="210.86" y="0">·-·</tspan><tspan class="cls-19" x="232.29" y="0">· </tspan><tspan x="244.53" y="0">·--</tspan><tspan class="cls-19" x="268.38" y="0">· </tspan><tspan x="280.62" y="0">·</tspan><tspan class="cls-19" x="286.96" y="0">- </tspan><tspan x="301.62" y="0">·-</tspan><tspan class="cls-16" x="316.72" y="0">· - </tspan><tspan class="cls-18" x="343.62" y="0">·</tspan><tspan class="cls-16" x="349.96" y="0">· · </tspan><tspan class="cls-18" x="374.44" y="0">··</tspan><tspan class="cls-19" x="387.11" y="0">· </tspan><tspan x="0" y="12">·</tspan><tspan class="cls-15" x="6.34" y="12">- - · </tspan><tspan class="cls-17" x="47.9" y="12">··</tspan><tspan class="cls-15" x="60.57" y="12">- </tspan><tspan x="75.24" y="12">·-</tspan><tspan class="cls-15" x="90.33" y="12">· </tspan><tspan class="cls-17" x="102.57" y="12">--</tspan><tspan class="cls-16" x="120.09" y="12">- </tspan><tspan x="134.75" y="12">·--</tspan><tspan class="cls-16" x="158.61" y="12">· · </tspan><tspan x="183.09" y="12">·</tspan><tspan class="cls-16" x="189.42" y="12">- </tspan><tspan x="204.09" y="12">-</tspan><tspan class="cls-20" x="212.85" y="12">· </tspan><tspan class="cls-18" x="225.09" y="12">·-·</tspan><tspan class="cls-16" x="246.52" y="12">· · </tspan><tspan class="cls-18" x="271" y="12">···</tspan><tspan class="cls-16" x="290" y="12">- · </tspan><tspan x="316.91" y="12">·-·</tspan><tspan class="cls-16" x="338.34" y="12">· </tspan><tspan x="350.58" y="12">-·-</tspan><tspan class="cls-16" x="374.44" y="12">· </tspan><tspan x="0" y="24">--</tspan><tspan class="cls-21" x="17.52" y="24">- </tspan><tspan class="cls-17" x="32.18" y="24">-</tspan><tspan class="cls-15" x="40.94" y="24">· - </tspan><tspan x="67.84" y="24">·-</tspan><tspan class="cls-15" x="82.94" y="24">· </tspan><tspan class="cls-17" x="95.18" y="24">·</tspan><tspan class="cls-19" x="101.52" y="24">· </tspan><tspan x="113.75" y="24">-··</tspan><tspan class="cls-16" x="135.19" y="24">· </tspan><tspan class="cls-22" x="147.43" y="24">··</tspan><tspan class="cls-19" x="160.1" y="24">- - · - </tspan><tspan x="216.33" y="24">--</tspan><tspan class="cls-19" x="233.85" y="24">- </tspan><tspan class="cls-18" x="248.51" y="24">··-</tspan><tspan class="cls-19" x="269.95" y="24">· </tspan><tspan class="cls-18" x="282.19" y="24">--</tspan><tspan class="cls-16" x="299.71" y="24">- </tspan><tspan class="cls-18" x="314.37" y="24">·-</tspan><tspan class="cls-19" x="329.47" y="24">· </tspan><tspan class="cls-22" x="341.71" y="24">-</tspan><tspan class="cls-16" x="350.47" y="24">- </tspan><tspan x="365.13" y="24">·</tspan><tspan class="cls-16" x="371.47" y="24">· </tspan><tspan x="383.71" y="24">-</tspan><tspan class="cls-16" x="392.47" y="24">· </tspan><tspan x="0" y="36">--</tspan><tspan class="cls-21" x="17.52" y="36">· · </tspan><tspan class="cls-17" x="42" y="36">··</tspan><tspan class="cls-15" x="54.67" y="36">- </tspan><tspan x="69.33" y="36">·-</tspan><tspan class="cls-15" x="84.43" y="36">· </tspan><tspan x="96.67" y="36">--</tspan><tspan class="cls-15" x="114.19" y="36">- </tspan><tspan x="128.85" y="36">·--</tspan><tspan class="cls-19" x="152.71" y="36">· · </tspan><tspan class="cls-18" x="177.18" y="36">·</tspan><tspan class="cls-19" x="183.52" y="36">- </tspan><tspan x="198.18" y="36">-</tspan><tspan class="cls-16" x="206.94" y="36">· </tspan><tspan x="219.18" y="36">·--</tspan><tspan class="cls-16" x="243.04" y="36">· </tspan><tspan x="255.28" y="36">--</tspan><tspan class="cls-19" x="272.8" y="36">- </tspan><tspan class="cls-18" x="287.46" y="36">·-·</tspan><tspan class="cls-19" x="308.9" y="36">· </tspan><tspan class="cls-18" x="321.14" y="36">·</tspan><tspan class="cls-19" x="327.47" y="36">· - </tspan><tspan x="354.38" y="36">·</tspan><tspan class="cls-19" x="360.71" y="36">· </tspan><tspan x="0" y="48">-·-</tspan><tspan class="cls-15" x="23.85" y="48">· </tspan><tspan x="36.09" y="48">·</tspan><tspan class="cls-15" x="42.43" y="48">- </tspan><tspan x="57.09" y="48">·-·</tspan><tspan class="cls-15" x="78.52" y="48">· </tspan><tspan x="90.76" y="48">·</tspan><tspan class="cls-15" x="97.1" y="48">- </tspan><tspan x="111.76" y="48">·-</tspan><tspan class="cls-16" x="126.86" y="48">- </tspan><tspan class="cls-18" x="141.52" y="48">·</tspan><tspan class="cls-19" x="147.86" y="48">- </tspan><tspan x="162.52" y="48">·-</tspan><tspan class="cls-16" x="177.62" y="48">· · </tspan><tspan class="cls-18" x="202.1" y="48">-</tspan><tspan class="cls-16" x="210.86" y="48">· · </tspan><tspan x="235.33" y="48">··</tspan><tspan class="cls-19" x="248.01" y="48">· </tspan><tspan x="260.25" y="48">··</tspan><tspan class="cls-16" x="272.92" y="48">· </tspan><tspan class="cls-18" x="285.16" y="48">·</tspan><tspan class="cls-19" x="291.49" y="48">- </tspan><tspan class="cls-18" x="306.16" y="48">-</tspan><tspan class="cls-23" x="314.92" y="48">· </tspan><tspan class="cls-22" x="327.16" y="48">-·</tspan><tspan class="cls-16" x="342.25" y="48">· - </tspan><tspan x="369.16" y="48">--</tspan><tspan class="cls-19" x="386.68" y="48">- </tspan><tspan class="cls-15"><tspan x="0" y="60">· </tspan><tspan class="cls-17" x="12.24" y="60">-··</tspan><tspan x="33.67" y="60">- </tspan><tspan class="cls-17" x="48.33" y="60">·--</tspan><tspan class="cls-19" x="72.19" y="60">· </tspan><tspan class="cls-17" x="84.43" y="60">·-</tspan><tspan x="99.52" y="60">· · </tspan><tspan class="cls-24" x="124" y="60">··</tspan><tspan x="136.67" y="60">· </tspan><tspan class="cls-18" x="148.91" y="60">··</tspan><tspan class="cls-16" x="161.58" y="60">· </tspan><tspan class="cls-24" x="173.83" y="60">·</tspan><tspan class="cls-16" x="180.16" y="60">· </tspan><tspan class="cls-18" x="192.4" y="60">-</tspan><tspan class="cls-16" x="201.16" y="60">· </tspan><tspan class="cls-24" x="213.4" y="60">--</tspan><tspan class="cls-16" x="230.92" y="60">· - </tspan><tspan class="cls-24" x="257.82" y="60">···</tspan><tspan class="cls-19" x="276.83" y="60">· · </tspan><tspan class="cls-24" x="301.31" y="60">·-</tspan><tspan class="cls-16" x="316.41" y="60">- </tspan><tspan class="cls-18" x="331.07" y="60">·</tspan><tspan class="cls-16" x="337.41" y="60">· </tspan><tspan class="cls-24" x="349.65" y="60">·-·</tspan><tspan class="cls-16" x="371.08" y="60">· </tspan></tspan><tspan x="0" y="72">·-·</tspan><tspan class="cls-15" x="21.43" y="72">· </tspan><tspan x="33.67" y="72">--</tspan><tspan class="cls-16" x="51.19" y="72">- </tspan><tspan class="cls-17" x="65.85" y="72">··-</tspan><tspan class="cls-16" x="87.28" y="72">· </tspan><tspan x="99.52" y="72">-·-</tspan><tspan class="cls-16" x="123.38" y="72">· </tspan><tspan x="135.62" y="72">·</tspan><tspan class="cls-20" x="141.95" y="72">· - </tspan><tspan x="168.86" y="72">·</tspan><tspan class="cls-16" x="175.19" y="72">· </tspan><tspan class="cls-18" x="187.43" y="72">--·</tspan><tspan class="cls-16" x="211.29" y="72">· · </tspan><tspan class="cls-18" x="235.77" y="72">-</tspan><tspan class="cls-16" x="244.53" y="72">· </tspan><tspan x="256.77" y="72">··</tspan><tspan class="cls-16" x="269.44" y="72">· </tspan><tspan x="281.68" y="72">--</tspan><tspan class="cls-19" x="299.2" y="72">- </tspan><tspan class="cls-18" x="313.86" y="72">··-</tspan><tspan class="cls-19" x="335.3" y="72">· - </tspan><tspan class="cls-18" x="362.2" y="72">···</tspan><tspan class="cls-16" x="381.21" y="72">· </tspan><tspan class="cls-15"><tspan x="0" y="84">· </tspan><tspan class="cls-17" x="12.24" y="84">··</tspan><tspan class="cls-16" x="24.91" y="84">- </tspan><tspan class="cls-17" x="39.57" y="84">-</tspan><tspan class="cls-16" x="48.33" y="84">· </tspan><tspan class="cls-24" x="60.57" y="84">·</tspan><tspan x="66.91" y="84">· </tspan><tspan class="cls-17" x="79.15" y="84">--</tspan><tspan class="cls-19" x="96.67" y="84">- </tspan><tspan class="cls-24" x="111.33" y="84">-</tspan><tspan class="cls-16" x="120.09" y="84">· </tspan><tspan class="cls-24" x="132.33" y="84">·-·-·-·--</tspan><tspan class="cls-19" x="201.47" y="84">· </tspan><tspan class="cls-18" x="213.71" y="84">--</tspan><tspan class="cls-16" x="231.23" y="84">- </tspan><tspan class="cls-18" x="245.9" y="84">·-·</tspan><tspan class="cls-16" x="267.33" y="84">· </tspan><tspan class="cls-18" x="279.57" y="84">·</tspan><tspan class="cls-16" x="285.91" y="84">· - </tspan><tspan class="cls-24" x="312.81" y="84">·</tspan><tspan class="cls-16" x="319.15" y="84">· </tspan><tspan class="cls-18" x="331.39" y="84">-·-</tspan><tspan class="cls-16" x="355.24" y="84">· </tspan><tspan class="cls-18" x="367.48" y="84">·</tspan><tspan class="cls-19" x="373.82" y="84">- </tspan></tspan><tspan x="0" y="96">·-·</tspan><tspan class="cls-15" x="21.43" y="96">· </tspan><tspan x="33.67" y="96">·--</tspan><tspan class="cls-19" x="57.53" y="96">· </tspan><tspan x="69.76" y="96">·</tspan><tspan class="cls-15" x="76.1" y="96">- </tspan><tspan x="90.76" y="96">·-</tspan><tspan class="cls-15" x="105.86" y="96">· - </tspan><tspan x="132.76" y="96">·</tspan><tspan class="cls-15" x="139.1" y="96">· · </tspan><tspan class="cls-18" x="163.58" y="96">··</tspan><tspan class="cls-19" x="176.25" y="96">· </tspan><tspan x="188.49" y="96">·</tspan><tspan class="cls-16" x="194.82" y="96">- - · </tspan><tspan class="cls-18" x="236.39" y="96">··</tspan><tspan class="cls-16" x="249.06" y="96">- </tspan><tspan class="cls-18" x="263.73" y="96">·-</tspan><tspan class="cls-19" x="278.82" y="96">· </tspan><tspan class="cls-22" x="291.06" y="96">--</tspan><tspan class="cls-16" x="308.58" y="96">- </tspan><tspan x="323.25" y="96">·--</tspan><tspan class="cls-16" x="347.1" y="96">· · </tspan><tspan x="371.58" y="96">·</tspan><tspan class="cls-16" x="377.92" y="96">- </tspan><tspan x="0" y="108">-</tspan><tspan class="cls-15" x="8.76" y="108">· </tspan><tspan x="21" y="108">·-·</tspan><tspan class="cls-15" x="42.43" y="108">· · </tspan><tspan x="66.91" y="108">···</tspan><tspan class="cls-15" x="85.92" y="108">- · </tspan><tspan class="cls-17" x="112.82" y="108">·-·</tspan><tspan class="cls-15" x="134.25" y="108">· </tspan><tspan class="cls-18" x="146.49" y="108">-·-</tspan><tspan class="cls-16" x="170.34" y="108">· </tspan><tspan class="cls-18" x="182.58" y="108">--</tspan><tspan class="cls-16" x="200.1" y="108">- </tspan><tspan x="214.77" y="108">-</tspan><tspan class="cls-16" x="223.53" y="108">· - </tspan><tspan x="250.43" y="108">·-</tspan><tspan class="cls-19" x="265.53" y="108">· </tspan><tspan class="cls-18" x="277.77" y="108">·</tspan><tspan class="cls-19" x="284.11" y="108">· </tspan><tspan x="296.35" y="108">-··</tspan><tspan class="cls-19" x="317.78" y="108">· </tspan><tspan class="cls-22" x="330.02" y="108">··</tspan><tspan class="cls-16" x="342.69" y="108">- - · - </tspan><tspan x="0" y="120">--</tspan><tspan class="cls-21" x="17.52" y="120">- </tspan><tspan class="cls-17" x="32.18" y="120">··-</tspan><tspan class="cls-16" x="53.61" y="120">· </tspan><tspan class="cls-17" x="65.85" y="120">--</tspan><tspan class="cls-15" x="83.37" y="120">- </tspan><tspan x="98.04" y="120">·-</tspan><tspan class="cls-15" x="113.13" y="120">· </tspan><tspan class="cls-17" x="125.37" y="120">-</tspan><tspan class="cls-15" x="134.13" y="120">- </tspan><tspan class="cls-18" x="148.79" y="120">·</tspan><tspan class="cls-19" x="155.13" y="120">· </tspan><tspan class="cls-22" x="167.37" y="120">-</tspan><tspan class="cls-20" x="176.13" y="120">· </tspan><tspan x="188.37" y="120">--</tspan><tspan class="cls-19" x="205.89" y="120">· · </tspan><tspan x="230.37" y="120">··</tspan><tspan class="cls-16" x="243.04" y="120">- </tspan><tspan x="257.7" y="120">·-</tspan><tspan class="cls-19" x="272.8" y="120">· </tspan><tspan class="cls-18" x="285.04" y="120">--</tspan><tspan class="cls-16" x="302.56" y="120">- </tspan><tspan class="cls-18" x="317.22" y="120">·--</tspan><tspan class="cls-16" x="341.08" y="120">· · </tspan><tspan x="365.56" y="120">·</tspan><tspan class="cls-16" x="371.89" y="120">- </tspan><tspan x="0" y="132">-</tspan><tspan class="cls-15" x="8.76" y="132">· </tspan><tspan x="21" y="132">·--</tspan><tspan class="cls-15" x="44.85" y="132">· </tspan><tspan x="57.09" y="132">--</tspan><tspan class="cls-19" x="74.61" y="132">- </tspan><tspan class="cls-17" x="89.28" y="132">·-·</tspan><tspan class="cls-15" x="110.71" y="132">· </tspan><tspan class="cls-17" x="122.95" y="132">·</tspan><tspan class="cls-16" x="129.28" y="132">· - </tspan><tspan class="cls-18" x="156.18" y="132">·</tspan><tspan class="cls-19" x="162.52" y="132">· </tspan><tspan x="174.76" y="132">-·-</tspan><tspan class="cls-19" x="198.62" y="132">· </tspan><tspan x="210.86" y="132">·</tspan><tspan class="cls-19" x="217.19" y="132">- </tspan><tspan x="231.86" y="132">·-·</tspan><tspan class="cls-19" x="253.29" y="132">· </tspan><tspan x="265.53" y="132">·</tspan><tspan class="cls-16" x="271.86" y="132">- </tspan><tspan class="cls-22" x="286.53" y="132">·-</tspan><tspan class="cls-19" x="301.62" y="132">- </tspan><tspan class="cls-18" x="316.29" y="132">·</tspan><tspan class="cls-19" x="322.62" y="132">- </tspan><tspan class="cls-22" x="337.29" y="132">·-</tspan><tspan class="cls-16" x="352.38" y="132">· · </tspan><tspan class="cls-18" x="376.86" y="132">-</tspan><tspan class="cls-16" x="385.62" y="132">· </tspan><tspan class="cls-15"><tspan x="0" y="144">· </tspan><tspan class="cls-17" x="12.24" y="144">··</tspan><tspan class="cls-16" x="24.91" y="144">· </tspan><tspan class="cls-17" x="37.15" y="144">··</tspan><tspan x="49.82" y="144">· </tspan><tspan class="cls-24" x="62.06" y="144">·</tspan><tspan x="68.4" y="144">- </tspan><tspan class="cls-17" x="83.06" y="144">-</tspan><tspan class="cls-19" x="91.82" y="144">· </tspan><tspan class="cls-24" x="104.06" y="144">-·</tspan><tspan x="119.15" y="144">· - </tspan><tspan class="cls-18" x="146.06" y="144">--</tspan><tspan class="cls-16" x="163.58" y="144">- · </tspan><tspan class="cls-24" x="190.48" y="144">-··</tspan><tspan class="cls-19" x="211.91" y="144">- </tspan><tspan class="cls-24" x="226.58" y="144">·--</tspan><tspan class="cls-19" x="250.43" y="144">· </tspan><tspan class="cls-24" x="262.67" y="144">·-</tspan><tspan class="cls-16" x="277.77" y="144">· · </tspan><tspan class="cls-18" x="302.25" y="144">··</tspan><tspan class="cls-19" x="314.92" y="144">· </tspan><tspan class="cls-22" x="327.16" y="144">··</tspan><tspan class="cls-16" x="339.83" y="144">· </tspan><tspan class="cls-24" x="352.07" y="144">·</tspan><tspan class="cls-19" x="358.41" y="144">· </tspan><tspan class="cls-18" x="370.65" y="144">-</tspan><tspan class="cls-19" x="379.41" y="144">· </tspan></tspan><tspan x="0" y="156">--</tspan><tspan class="cls-21" x="17.52" y="156">· - </tspan><tspan class="cls-17" x="44.42" y="156">···</tspan><tspan class="cls-15" x="63.43" y="156">· · </tspan><tspan class="cls-17" x="87.91" y="156">·-</tspan><tspan class="cls-15" x="103" y="156">- </tspan><tspan class="cls-17" x="117.67" y="156">·</tspan><tspan class="cls-15" x="124" y="156">· </tspan><tspan class="cls-17" x="136.24" y="156">·-·</tspan><tspan class="cls-19" x="157.67" y="156">· </tspan><tspan class="cls-18" x="169.91" y="156">·-·</tspan><tspan class="cls-19" x="191.34" y="156">· </tspan><tspan x="203.58" y="156">--</tspan><tspan class="cls-16" x="221.1" y="156">- </tspan><tspan class="cls-18" x="235.77" y="156">··-</tspan><tspan class="cls-16" x="257.2" y="156">· </tspan><tspan class="cls-18" x="269.44" y="156">-·-</tspan><tspan class="cls-16" x="293.3" y="156">· </tspan><tspan x="305.54" y="156">·</tspan><tspan class="cls-16" x="311.87" y="156">· - </tspan><tspan class="cls-18" x="338.78" y="156">·</tspan><tspan class="cls-16" x="345.11" y="156">· </tspan><tspan class="cls-18" x="357.35" y="156">--·</tspan><tspan class="cls-16" x="381.21" y="156">· </tspan><tspan class="cls-15"><tspan x="0" y="168">· </tspan><tspan class="cls-17" x="12.24" y="168">-</tspan><tspan x="21" y="168">· </tspan><tspan class="cls-24" x="33.24" y="168">··</tspan><tspan class="cls-16" x="45.91" y="168">· </tspan><tspan class="cls-24" x="58.15" y="168">--</tspan><tspan x="75.67" y="168">- </tspan><tspan class="cls-17" x="90.33" y="168">··-</tspan><tspan x="111.76" y="168">· - </tspan><tspan class="cls-17" x="138.67" y="168">···</tspan><tspan class="cls-19" x="157.67" y="168">· · </tspan><tspan class="cls-18" x="182.15" y="168">··</tspan><tspan class="cls-16" x="194.82" y="168">- </tspan><tspan class="cls-24" x="209.49" y="168">-</tspan><tspan class="cls-16" x="218.25" y="168">· </tspan><tspan class="cls-24" x="230.49" y="168">·</tspan><tspan class="cls-16" x="236.82" y="168">· </tspan><tspan class="cls-18" x="249.06" y="168">--</tspan><tspan class="cls-16" x="266.58" y="168">- </tspan><tspan class="cls-22" x="281.25" y="168">-</tspan><tspan class="cls-16" x="290.01" y="168">· </tspan><tspan class="cls-18" x="302.25" y="168">·-·-·-·--</tspan><tspan class="cls-19" x="371.39" y="168">· </tspan></tspan><tspan x="0" y="180">--</tspan><tspan class="cls-21" x="17.52" y="180">- </tspan><tspan class="cls-17" x="32.18" y="180">·-·</tspan><tspan class="cls-16" x="53.61" y="180">· </tspan><tspan class="cls-17" x="65.85" y="180">·</tspan><tspan class="cls-19" x="72.19" y="180">· - </tspan><tspan x="99.09" y="180">·</tspan><tspan class="cls-15" x="105.43" y="180">· </tspan><tspan class="cls-17" x="117.67" y="180">-·-</tspan><tspan class="cls-16" x="141.52" y="180">· </tspan><tspan class="cls-18" x="153.76" y="180">·</tspan><tspan class="cls-19" x="160.1" y="180">- </tspan><tspan class="cls-18" x="174.76" y="180">·-·</tspan><tspan class="cls-19" x="196.19" y="180">· </tspan><tspan x="208.43" y="180">·--</tspan><tspan class="cls-19" x="232.29" y="180">· </tspan><tspan x="244.53" y="180">·</tspan><tspan class="cls-19" x="250.86" y="180">- </tspan><tspan x="265.53" y="180">·-</tspan><tspan class="cls-16" x="280.62" y="180">· - </tspan><tspan class="cls-18" x="307.53" y="180">·</tspan><tspan class="cls-16" x="313.86" y="180">· · </tspan><tspan class="cls-18" x="338.34" y="180">··</tspan><tspan class="cls-19" x="351.01" y="180">· </tspan><tspan x="363.25" y="180">·</tspan><tspan class="cls-16" x="369.59" y="180">- - </tspan><tspan class="cls-15"><tspan x="0" y="192">· </tspan><tspan class="cls-17" x="12.24" y="192">··</tspan><tspan class="cls-16" x="24.91" y="192">- </tspan><tspan class="cls-17" x="39.57" y="192">·-</tspan><tspan x="54.67" y="192">· </tspan><tspan class="cls-24" x="66.91" y="192">--</tspan><tspan x="84.43" y="192">- </tspan><tspan class="cls-24" x="99.09" y="192">·--</tspan><tspan class="cls-16" x="122.95" y="192">· · </tspan><tspan class="cls-22" x="147.43" y="192">·</tspan><tspan class="cls-16" x="153.76" y="192">- </tspan><tspan class="cls-18" x="168.42" y="192">-</tspan><tspan class="cls-16" x="177.18" y="192">· </tspan><tspan class="cls-18" x="189.42" y="192">·-·</tspan><tspan class="cls-16" x="210.86" y="192">· · </tspan><tspan class="cls-24" x="235.33" y="192">···</tspan><tspan class="cls-16" x="254.34" y="192">- · </tspan><tspan class="cls-22" x="281.25" y="192">·-·</tspan><tspan class="cls-16" x="302.68" y="192">· </tspan><tspan class="cls-22" x="314.92" y="192">-·-</tspan><tspan class="cls-16" x="338.77" y="192">· </tspan><tspan class="cls-24" x="351.01" y="192">--</tspan><tspan class="cls-19" x="368.53" y="192">- </tspan><tspan class="cls-24" x="383.2" y="192">-</tspan><tspan class="cls-19" x="391.96" y="192">· </tspan><tspan x="0" y="204">- </tspan><tspan class="cls-17" x="14.66" y="204">·-</tspan><tspan class="cls-16" x="29.76" y="204">· </tspan><tspan class="cls-17" x="42" y="204">·</tspan><tspan class="cls-16" x="48.33" y="204">· </tspan><tspan class="cls-24" x="60.57" y="204">-··</tspan><tspan x="82" y="204">· </tspan><tspan class="cls-24" x="94.24" y="204">··</tspan><tspan x="106.91" y="204">- - · - </tspan><tspan class="cls-18" x="163.14" y="204">--</tspan><tspan class="cls-19" x="180.67" y="204">- </tspan><tspan class="cls-24" x="195.33" y="204">··-</tspan><tspan class="cls-19" x="216.76" y="204">· </tspan><tspan class="cls-24" x="229" y="204">--</tspan><tspan class="cls-16" x="246.52" y="204">- </tspan><tspan class="cls-18" x="261.18" y="204">·-</tspan><tspan class="cls-16" x="276.28" y="204">· </tspan><tspan class="cls-22" x="288.52" y="204">-</tspan><tspan class="cls-16" x="297.28" y="204">- </tspan><tspan class="cls-18" x="311.95" y="204">·</tspan><tspan class="cls-16" x="318.28" y="204">· </tspan><tspan class="cls-18" x="330.52" y="204">-</tspan><tspan class="cls-23" x="339.28" y="204">· </tspan><tspan class="cls-24" x="351.52" y="204">--</tspan><tspan class="cls-16" x="369.04" y="204">· · </tspan></tspan><tspan x="0" y="216">··</tspan><tspan class="cls-21" x="12.67" y="216">- </tspan><tspan class="cls-17" x="27.33" y="216">·-</tspan><tspan class="cls-15" x="42.43" y="216">· </tspan><tspan x="54.67" y="216">--</tspan><tspan class="cls-19" x="72.19" y="216">- </tspan><tspan class="cls-17" x="86.85" y="216">·--</tspan><tspan class="cls-15" x="110.71" y="216">· · </tspan><tspan x="135.19" y="216">·</tspan><tspan class="cls-16" x="141.52" y="216">- </tspan><tspan class="cls-18" x="156.18" y="216">-</tspan><tspan class="cls-19" x="164.95" y="216">· </tspan><tspan class="cls-18" x="177.18" y="216">·--</tspan><tspan class="cls-19" x="201.04" y="216">· </tspan><tspan x="213.28" y="216">--</tspan><tspan class="cls-16" x="230.8" y="216">- </tspan><tspan class="cls-18" x="245.46" y="216">·-·</tspan><tspan class="cls-16" x="266.9" y="216">· </tspan><tspan x="279.14" y="216">·</tspan><tspan class="cls-16" x="285.47" y="216">· - </tspan><tspan class="cls-18" x="312.38" y="216">·</tspan><tspan class="cls-16" x="318.71" y="216">· </tspan><tspan class="cls-18" x="330.95" y="216">-·-</tspan><tspan class="cls-16" x="354.81" y="216">· </tspan><tspan class="cls-18" x="367.05" y="216">·</tspan><tspan class="cls-19" x="373.38" y="216">- </tspan><tspan x="0" y="228">·-·</tspan><tspan class="cls-15" x="21.43" y="228">· </tspan><tspan x="33.67" y="228">·</tspan><tspan class="cls-15" x="40.01" y="228">- </tspan><tspan x="54.67" y="228">·-</tspan><tspan class="cls-19" x="69.76" y="228">- </tspan><tspan class="cls-17" x="84.43" y="228">·</tspan><tspan class="cls-15" x="90.76" y="228">- </tspan><tspan x="105.43" y="228">·-</tspan><tspan class="cls-16" x="120.52" y="228">· · </tspan><tspan class="cls-25" x="145" y="228">-</tspan><tspan class="cls-16" x="153.76" y="228">· · </tspan><tspan x="178.24" y="228">··</tspan><tspan class="cls-19" x="190.91" y="228">· </tspan><tspan class="cls-18" x="203.15" y="228">··</tspan><tspan class="cls-16" x="215.82" y="228">· </tspan><tspan x="228.06" y="228">·</tspan><tspan class="cls-16" x="234.4" y="228">- </tspan><tspan class="cls-18" x="249.06" y="228">-</tspan><tspan class="cls-19" x="257.82" y="228">· </tspan><tspan class="cls-18" x="270.06" y="228">-·</tspan><tspan class="cls-16" x="285.16" y="228">· - </tspan><tspan x="312.06" y="228">--</tspan><tspan class="cls-19" x="329.58" y="228">- · </tspan><tspan x="356.49" y="228">-··</tspan><tspan class="cls-16" x="377.92" y="228">- </tspan><tspan x="0" y="240">·--</tspan><tspan class="cls-15" x="23.85" y="240">· </tspan><tspan x="36.09" y="240">·-</tspan><tspan class="cls-16" x="51.19" y="240">· · </tspan><tspan class="cls-17" x="75.67" y="240">··</tspan><tspan class="cls-15" x="88.34" y="240">· </tspan><tspan x="100.58" y="240">··</tspan><tspan class="cls-16" x="113.25" y="240">· </tspan><tspan x="125.49" y="240">·</tspan><tspan class="cls-15" x="131.83" y="240">· </tspan><tspan class="cls-18" x="144.07" y="240">-</tspan><tspan class="cls-19" x="152.83" y="240">· </tspan><tspan x="165.07" y="240">--</tspan><tspan class="cls-16" x="182.58" y="240">· - </tspan><tspan x="209.49" y="240">···</tspan><tspan class="cls-16" x="228.5" y="240">· · </tspan><tspan x="252.98" y="240">·-</tspan><tspan class="cls-16" x="268.07" y="240">- </tspan><tspan class="cls-18" x="282.74" y="240">·</tspan><tspan class="cls-19" x="289.07" y="240">· </tspan><tspan x="301.31" y="240">·-·</tspan><tspan class="cls-19" x="322.74" y="240">· </tspan><tspan x="334.98" y="240">·-·</tspan><tspan class="cls-19" x="356.42" y="240">· </tspan><tspan x="368.66" y="240">--</tspan><tspan class="cls-16" x="386.18" y="240">- </tspan></text></g></g></g><g id="Euros" class="cls-12"><g class="cls-26"><g class="cls-12"><text class="cls-27" transform="translate(287.4 25.16)">€€€€€€€€€€€€€€<tspan class="cls-28" x="273.32" y="0">€</tspan><tspan x="0" y="25">€€€€€€€€€€€€€€</tspan><tspan class="cls-28" x="273.32" y="25">€</tspan><tspan x="0" y="50">€€€€€€€€€€€€€€</tspan><tspan class="cls-28" x="273.32" y="50">€</tspan><tspan x="0" y="75">€€€€€€€€€€€€€€</tspan><tspan class="cls-28" x="273.32" y="75">€</tspan><tspan x="0" y="100">€€€€€€€€€€€€€€</tspan><tspan class="cls-28" x="273.32" y="100">€</tspan><tspan x="0" y="125">€€€€€€€€€€€€€€</tspan><tspan class="cls-28" x="273.32" y="125">€</tspan><tspan x="0" y="150">€€€€€€€€€€€€€€</tspan><tspan class="cls-28" x="273.32" y="150">€</tspan><tspan x="0" y="175">€€€€€€€€€€€€€€</tspan><tspan class="cls-28" x="273.32" y="175">€</tspan><tspan x="0" y="200">€€€€€€€€€€€€€€</tspan><tspan class="cls-28" x="273.32" y="200">€</tspan><tspan x="0" y="225">€€€€€€€€€€€€€€</tspan><tspan class="cls-29" x="273.32" y="225">€</tspan></text></g></g></g></g><g id="Logo_foreground" data-name="Logo foreground"><g id="White"><g id="Stars"><g id="Stars-2" data-name="Stars"><polygon class="cls-30" points="245.69 237.23 235.57 229.92 225.5 237.28 229.33 225.41 219.21 218.1 231.69 218.07 235.52 206.19 239.4 218.05 251.88 218.02 241.8 225.38 245.69 237.23"/><polygon class="cls-31" points="301.63 252.35 291.52 245.04 281.44 252.4 285.27 240.52 275.16 233.22 287.63 233.18 291.46 221.31 295.34 233.16 307.82 233.13 297.74 240.49 301.63 252.35"/><polygon class="cls-32" points="361.5 234.23 351.39 226.92 341.31 234.28 345.14 222.41 335.03 215.1 347.5 215.07 351.33 203.19 355.21 215.05 367.69 215.02 357.61 222.38 361.5 234.23"/><polygon class="cls-33" points="398.03 193.55 387.92 186.25 377.84 193.6 381.67 181.73 371.56 174.42 384.03 174.39 387.86 162.52 391.74 174.37 404.22 174.34 394.14 181.7 398.03 193.55"/><polygon class="cls-34" points="410.99 141.98 400.88 134.68 390.81 142.03 394.63 130.16 384.52 122.85 397 122.82 400.82 110.94 404.71 122.8 417.18 122.77 407.11 130.13 410.99 141.98"/><polygon class="cls-35" points="398.03 90.41 387.92 83.1 377.84 90.46 381.67 78.59 371.56 71.28 384.03 71.25 387.86 59.37 391.74 71.23 404.22 71.2 394.14 78.56 398.03 90.41"/><polygon class="cls-36" points="361.5 49.44 351.39 42.13 341.31 49.49 345.14 37.61 335.03 30.3 347.5 30.27 351.33 18.4 355.21 30.25 367.69 30.22 357.61 37.58 361.5 49.44"/><polygon class="cls-37" points="305.82 31.74 295.71 24.43 285.64 31.79 289.46 19.91 279.35 12.61 291.83 12.57 295.65 0.7 299.54 12.55 312.01 12.52 301.94 19.88 305.82 31.74"/><polygon class="cls-38" points="245.69 237.23 235.57 229.92 225.5 237.28 229.33 225.41 219.21 218.1 231.69 218.07 235.52 206.19 239.4 218.05 251.88 218.02 241.8 225.38 245.69 237.23"/><polygon class="cls-38" points="301.63 252.35 291.52 245.04 281.44 252.4 285.27 240.52 275.16 233.22 287.63 233.18 291.46 221.31 295.34 233.16 307.82 233.13 297.74 240.49 301.63 252.35"/><polygon class="cls-38" points="361.5 234.23 351.39 226.92 341.31 234.28 345.14 222.41 335.03 215.1 347.5 215.07 351.33 203.19 355.21 215.05 367.69 215.02 357.61 222.38 361.5 234.23"/><polygon class="cls-38" points="398.03 193.55 387.92 186.25 377.84 193.6 381.67 181.73 371.56 174.42 384.03 174.39 387.86 162.52 391.74 174.37 404.22 174.34 394.14 181.7 398.03 193.55"/><polygon class="cls-38" points="410.99 141.98 400.88 134.68 390.81 142.03 394.63 130.16 384.52 122.85 397 122.82 400.82 110.94 404.71 122.8 417.18 122.77 407.11 130.13 410.99 141.98"/><polygon class="cls-38" points="398.03 90.41 387.92 83.1 377.84 90.46 381.67 78.59 371.56 71.28 384.03 71.25 387.86 59.37 391.74 71.23 404.22 71.2 394.14 78.56 398.03 90.41"/><polygon class="cls-38" points="361.5 49.44 351.39 42.13 341.31 49.49 345.14 37.61 335.03 30.3 347.5 30.27 351.33 18.4 355.21 30.25 367.69 30.22 357.61 37.58 361.5 49.44"/><polygon class="cls-38" points="305.82 31.74 295.71 24.43 285.64 31.79 289.46 19.91 279.35 12.61 291.83 12.57 295.65 0.7 299.54 12.55 312.01 12.52 301.94 19.88 305.82 31.74"/></g></g><g id="EPFO"><text class="cls-39" transform="translate(304.38 176.94) rotate(-22)">€</text><text class="cls-40" transform="translate(235.87 110.94)">EP<tspan x="0" y="72">F</tspan></text></g><g id="Magnifier"><path class="cls-38" d="M336.88,209.15a2.34,2.34,0,0,1-2.92-1.42l-8.62-24.29a30,30,0,0,1-19.74-2.31,29.35,29.35,0,1,1,39.65-13.36,29,29,0,0,1-15.56,14.31l8.59,24.19a2.25,2.25,0,0,1-1.4,2.88Zm-7.6-76.74a24.83,24.83,0,1,0,11.84,33.36,25,25,0,0,0-11.84-33.36Z"/></g></g></g></svg>