<svg width="236" height="42" viewBox="0 0 236 42" fill="none" xmlns="http://www.w3.org/2000/svg">
    <path fill-rule="evenodd" clip-rule="evenodd" d="M35.9503 1.94645C35.9503 14.7872 35.9503 27.5883 35.9503 40.4263C35.9503 40.977 35.8509 41.119 35.1668 41.119C32.0384 41.119 20.7511 41.119 16.4389 41.119C6.94008 41.119 0.490214 33.0335 0.921719 24.7578C1.50368 13.4614 12.7597 8.27458 19.6496 10.3215C19.9392 10.4123 20.2515 10.0206 20.3026 9.8701C23.5019 1.28212 30.9454 -0.00110501 35.2292 0.850595C35.8197 0.972672 35.9503 1.46382 35.9503 1.94645Z" fill="#002F6B"/>
    <path fill-rule="evenodd" clip-rule="evenodd" d="M60.8754 30.8475C59.9329 30.8475 58.9081 30.8588 58.0678 30.8588C57.5852 30.8588 57.4773 30.9497 57.4546 31.4919C57.4546 31.9746 57.5852 32.0938 58.0252 32.0739C58.9478 32.0739 60.2111 32.0739 61.1536 32.0739C61.6362 32.0739 61.7356 32.1846 61.7554 32.636C61.9769 36.9684 59.1976 40.3894 56.1487 41.0736C55.6661 41.1843 55.5157 41.0736 55.5157 40.5313C55.5157 36.4375 55.5043 31.0604 55.5043 26.9694C55.5043 26.5776 55.5753 26.3363 55.8762 26.3363C57.9741 26.3363 60.5319 28.9851 61.1224 30.3592C61.2587 30.6544 61.3069 30.8475 60.8754 30.8475Z" fill="#002F6B"/>
    <path fill-rule="evenodd" clip-rule="evenodd" d="M48.8103 30.8475C48.5803 30.8475 48.3277 30.8475 48.3277 31.4096C48.3277 32.0512 48.5888 32.0626 48.8103 32.0626C50.1644 32.0626 51.6804 32.0626 53.0345 32.0626C53.4859 32.0626 53.6562 32.2925 53.6363 32.7638C53.6363 33.4253 53.6363 39.1544 53.6363 40.6988C53.6363 40.9202 53.3752 41.119 53.0345 41.119C51.1097 41.119 48.8614 41.119 47.0161 41.119C46.7266 41.119 46.3632 41.0991 46.3632 40.5881C46.3632 32.1818 46.3632 23.0942 46.3632 14.6879C46.3632 14.157 46.525 14.0661 47.0161 14.157C50.4455 14.7901 53.6477 17.4985 53.6477 21.2488C53.6477 21.5384 53.4376 21.7513 53.0458 21.7513C52.0125 21.7513 49.3156 21.74 48.8529 21.7513C48.603 21.7513 48.3504 21.7513 48.3504 22.3021C48.3504 22.9153 48.6116 22.904 48.833 22.904C50.1672 22.904 51.7229 22.9153 53.0572 22.9153C53.5795 22.9153 53.6704 23.0856 53.659 23.5683C53.659 24.2894 53.659 25.2632 53.659 25.9672C53.659 26.2795 53.4092 26.3789 53.0572 26.3789C51.6718 26.3789 50.2496 26.3789 48.833 26.3789C48.6116 26.3789 48.3504 26.3789 48.3504 26.9098C48.3504 27.452 48.6201 27.452 48.833 27.452C50.2581 27.452 51.7116 27.452 53.0458 27.452C53.4575 27.452 53.659 27.6025 53.659 28.2555C53.659 28.8062 53.659 29.6892 53.659 30.1917C53.659 30.6743 53.4887 30.8446 53.0572 30.8446C51.6293 30.8475 50.2042 30.8475 48.8103 30.8475Z" fill="#002F6B"/>
    <path fill-rule="evenodd" clip-rule="evenodd" d="M38.738 2.06569C41.5968 3.57036 44.1546 5.94661 44.4243 9.13764C44.6457 11.6246 44.5236 14.5942 44.5236 16.9335C44.5236 17.2742 44.2624 17.3849 43.8309 17.3849C42.7068 17.3849 41.6337 17.3849 40.43 17.3849C40.1404 17.3849 39.8793 17.3963 39.8793 17.9669C39.8793 18.5092 40.1404 18.5376 40.4215 18.5376C41.5741 18.5376 42.6699 18.5376 43.8309 18.5376C44.271 18.5376 44.5321 18.8385 44.5321 19.27C44.5321 19.6902 44.5321 20.6044 44.5321 21.2658C44.5321 21.598 44.1716 21.7371 43.8196 21.7371C42.667 21.7371 41.5826 21.7485 40.43 21.7485C40.1291 21.7485 39.8793 21.7797 39.8793 22.3503C39.8793 22.9011 40.1404 22.9125 40.43 22.9125C41.5741 22.9125 42.6784 22.8812 43.8196 22.9125C44.2312 22.9125 44.5208 23.0828 44.5208 23.5853C44.5208 24.3376 44.5208 25.1099 44.5208 25.8735C44.5208 26.1432 44.1886 26.376 43.8082 26.376C42.6443 26.376 41.6223 26.376 40.4385 26.376C40.1376 26.376 39.8764 26.376 39.8764 26.8871C39.8764 27.4492 40.1376 27.4492 40.3988 27.4492C41.5826 27.4492 42.6244 27.4378 43.8082 27.4492C44.1886 27.4492 44.5407 27.6394 44.5208 28.0113C44.5208 28.7636 44.5208 29.5359 44.5208 30.3081C44.5208 30.68 44.1801 30.8304 43.8082 30.8304C42.6642 30.8304 41.5513 30.8304 40.4186 30.8304C40.1291 30.8304 39.8764 30.8418 39.8764 31.421C39.8764 32.0342 40.1262 32.054 40.4186 32.054C41.5627 32.054 42.6954 32.054 43.8281 32.054C44.2199 32.054 44.5208 32.2159 44.5208 32.6247C44.5208 35.194 44.5321 37.9506 44.5321 40.5285C44.5321 40.96 44.2 41.1105 43.8196 41.1105C42.0453 41.1105 40.3789 41.1218 38.5933 41.0991C38.1305 41.0991 37.9914 40.8975 37.9914 40.4177C37.9914 37.0876 38.0028 7.985 38.0028 2.54832C37.9857 2.07705 38.3179 1.84425 38.738 2.06569Z" fill="#002F6B"/>
    <path fill-rule="evenodd" clip-rule="evenodd" d="M35.9503 1.94645C35.9503 14.7872 35.9503 27.5883 35.9503 40.4263C35.9503 40.977 35.8509 41.119 35.1668 41.119C32.0384 41.119 20.7511 41.119 16.4389 41.119C6.94008 41.119 0.490214 33.0335 0.921719 24.7578C1.50368 13.4614 12.7597 8.27458 19.6496 10.3215C19.9392 10.4123 20.2515 10.0206 20.3026 9.8701C23.5019 1.28212 30.9454 -0.00110501 35.2292 0.850595C35.8197 0.972672 35.9503 1.46382 35.9503 1.94645Z" fill="#002F6B"/>
    <path d="M76.1381 39.6668C75.8384 39.4542 75.5615 39.0291 75.2977 38.4103L61.1727 4.8086C61.0586 4.48495 61 4.19304 61 3.93285C61 3.3173 61.3323 3.01269 62.0001 3.01269H68.6977C69.2157 3.01269 69.6197 3.12375 69.8933 3.33633C70.1702 3.54892 70.3884 3.86304 70.5383 4.25649L79.4707 27.5873L88.4031 4.25649C88.7028 3.42835 89.3347 3 90.3023 3H96.9999C97.6677 3 98 3.31412 98 3.92016C98 4.17717 97.9414 4.46909 97.8273 4.7959L83.774 38.4199C83.5101 39.0354 83.2202 39.4511 82.9107 39.6764C82.5882 39.8889 82.1387 40 81.5425 40H77.4673C76.8744 39.9937 76.4378 39.8826 76.1381 39.6668Z" fill="#002F6B"/>
    <path d="M116.555 3H102.523C101.618 3 100.983 3.20323 100.59 3.59381C100.197 3.99709 100 4.59089 100 5.38792V37.6565C100 38.4536 100.197 39.0474 100.59 39.4284C100.983 39.8095 101.632 40 102.523 40H106.736C107.673 40 108.322 39.8095 108.705 39.4284C109.075 39.0474 109.272 38.4631 109.272 37.6565V27.9747V9.6398H115.952C119.841 9.6398 121.787 11.6022 121.787 15.5207C121.787 19.436 119.841 21.4016 115.952 21.4016H110.753V27.9779H116.565C126.184 27.9779 131 23.8276 131 15.5112C130.993 7.17568 126.177 3 116.555 3Z" fill="#002F6B"/>
    <path d="M138.069 40.1058C135.49 39.5066 133.402 38.6446 131.815 37.5455C131.278 37.1386 131 36.7765 131 36.4464C131 36.2317 131.088 35.9722 131.269 35.6774L133.49 32.111C133.702 31.7489 133.936 31.5567 134.195 31.5567C134.407 31.5567 134.685 31.6688 135.01 31.8835C136.35 32.6525 137.879 33.2774 139.611 33.7516C141.343 34.2259 143.094 34.4662 144.86 34.4662C146.949 34.4662 148.51 34.1265 149.515 33.4472C150.52 32.7679 151.035 31.704 151.035 30.2301C151.035 29.2463 150.788 28.442 150.308 27.8172C149.818 27.1956 149.101 26.6508 148.143 26.1766C147.183 25.7024 145.72 25.0775 143.732 24.3085C141.422 23.4241 139.466 22.5301 137.857 21.6136C136.249 20.6972 134.931 19.518 133.904 18.0697C132.877 16.6213 132.362 14.8525 132.362 12.7697C132.362 9.29303 133.613 6.63344 136.104 4.77494C138.594 2.92925 141.877 2 145.963 2C151.345 2 155.453 3.03179 158.313 5.07935C158.85 5.52155 159.128 5.88363 159.128 6.17843C159.128 6.39312 159.039 6.65267 158.859 6.94747L156.638 10.5139C156.426 10.876 156.192 11.0682 155.933 11.0682C155.721 11.0682 155.443 10.9561 155.118 10.7414C152.918 9.28021 150.248 8.54643 147.101 8.54643C143.204 8.54643 141.248 9.97235 141.248 12.8274C141.248 13.7791 141.472 14.5609 141.931 15.1601C142.376 15.7593 143.002 16.2817 143.795 16.7014C144.588 17.1212 145.84 17.6627 147.537 18.3196L149.057 18.9188C151.692 19.9826 153.768 20.9792 155.288 21.9084C156.808 22.8377 157.968 23.9913 158.783 25.3403C159.599 26.6989 160 28.4324 160 30.5601C160 33.742 158.815 36.2766 156.448 38.1704C154.081 40.0641 150.665 40.9998 146.187 40.9998C143.35 41.0094 140.648 40.705 138.069 40.1058Z" fill="#002F6B"/>
    <path d="M188.461 20.7951C189.856 20.2108 190.966 19.2582 191.762 17.9118C192.571 16.5654 192.969 15.0507 192.969 13.3455C192.969 10.1129 191.985 7.58848 190.013 5.74991C188.041 3.92087 185.086 3 181.152 3H165.414C164.548 3 163.94 3.20323 163.564 3.5938C163.188 3.99708 163 4.59089 163 5.38792V37.6565C163 38.4536 163.188 39.0474 163.564 39.4284C163.94 39.8095 164.561 40 165.414 40H181.152C183.976 40 186.358 39.5173 188.273 38.552C190.188 37.5867 191.618 36.2752 192.571 34.6018C193.524 32.9283 194 31.0675 194 28.9908C194 24.7643 192.151 22.0271 188.461 20.7951ZM184.032 32.1377C183.258 32.9918 182.083 33.4173 180.509 33.4173H171.858V9.58583H179.644C181.183 9.58583 182.324 9.90019 183.054 10.5385C183.785 11.1767 184.151 12.2341 184.151 13.7266C184.151 15.1079 183.753 16.1621 182.967 16.8798C182.18 17.6101 181.073 17.9689 179.632 17.9689H173.262V24.1165H180.064C181.681 24.1165 182.932 24.5103 183.829 25.2819C184.725 26.0663 185.17 27.2348 185.17 28.7939C185.183 30.1752 184.797 31.2835 184.032 32.1377Z" fill="#002F6B"/>
    <path d="M202.213 36.013C198.733 32.657 197 27.8282 197 21.5236C197 15.2189 198.746 10.3902 202.248 7.0341C205.737 3.67803 210.635 2 216.941 2C219.598 2 222.042 2.25989 224.26 2.79249C226.478 3.3251 228.313 4.08551 229.776 5.07051C230.181 5.3304 230.372 5.62557 230.372 5.95604C230.372 6.10363 230.283 6.36353 230.101 6.72609L228.03 10.2394C227.772 10.6468 227.523 10.8393 227.265 10.8393C227.083 10.8393 226.793 10.727 226.385 10.5121C223.986 9.19661 221.217 8.52925 218.088 8.52925C214.306 8.52925 211.333 9.60729 209.182 11.773C207.031 13.9387 205.96 17.1793 205.96 21.5011C205.96 25.8646 206.961 29.1084 208.965 31.2292C210.969 33.3596 213.783 34.4152 217.432 34.4152C218.591 34.4152 219.739 34.3254 220.876 34.1425C222.001 33.9596 222.915 33.6997 223.601 33.3725V24.9021H217.645C216.766 24.9021 216.17 24.732 215.845 24.3791C215.52 24.0262 215.351 23.439 215.351 22.5888V20.6059C215.351 19.8006 215.52 19.2231 215.845 18.8702C216.17 18.5172 216.769 18.3472 217.645 18.3472H229.209C230.222 18.3472 230.942 18.5846 231.369 19.0627C231.787 19.5375 232 20.2755 232 21.2605V35.227C232 35.8494 231.92 36.3275 231.787 36.6547C231.64 36.982 231.347 37.2996 230.907 37.5852C227.37 39.8632 222.712 40.999 216.922 40.999C210.59 41.0471 205.68 39.3691 202.213 36.013Z" fill="#002F6B"/>
</svg>