<?xml version="1.0" encoding="utf-8"?>
<!-- Generator: Adobe Illustrator 28.0.0, SVG Export Plug-In . SVG Version: 6.00 Build 0)  -->
<svg version="1.1" id="Layer_1" xmlns="http://www.w3.org/2000/svg" xmlns:xlink="http://www.w3.org/1999/xlink" x="0px" y="0px"
	 viewBox="0 0 1281.54 355.98" style="enable-background:new 0 0 1281.54 355.98;" xml:space="preserve">
<style type="text/css">
	.st0{fill:#4F2984;}
	.st1{fill:#FFFFFF;}
	.st2{fill:#FEC033;}
</style>
<g id="PURPLE-YELLOW">
	<g>
		<path class="st0" d="M264.97,68.24c-0.1,0.44-0.15,0.9-0.29,1.32c-11.4,32.32-22.93,64.59-35.43,96.5
			c-15.17,38.73-31.2,77.09-48.94,114.72c-0.39,0.82-0.79,1.64-1.21,2.51c-15.4,0-30.77,0-46.22,0c-0.16-0.3-0.33-0.63-0.49-0.96
			c-10.76-22.68-20.88-45.63-30.62-68.76C83.4,169.95,66.53,125.76,51.14,81.01c-1.27-3.69-2.53-7.39-3.78-11.09
			c-0.18-0.54-0.23-1.12-0.35-1.68c17.73,0,35.45,0,53.18,0c0.15,0.43,0.29,0.86,0.44,1.29c5.89,17.48,11.64,35,17.71,52.41
			c7.99,22.9,16.25,45.71,24.39,68.57c4.1,11.51,8.45,22.92,13.4,34.09c0.21,0.47,0.44,0.94,0.75,1.61
			c0.31-0.68,0.53-1.12,0.71-1.57c2.25-5.54,4.58-11.05,6.72-16.64c9.14-23.9,17.73-48.01,26.27-72.13
			c7.79-22.01,15.36-44.09,22.55-66.3c0.15-0.46,0.43-0.88,0.65-1.32C230.85,68.24,247.91,68.24,264.97,68.24z"/>
		<path class="st0" d="M307.05,120.14c31.97,0,61.16,18.16,75.27,46.85c4.26,8.66,7.03,17.77,8,27.38
			c2.61,25.81-4.83,48.35-22.56,67.28c-12.05,12.87-26.94,20.93-44.26,24.44c-7.47,1.51-15.01,2.01-22.59,1.41
			c-19.55-1.56-36.62-8.93-50.98-22.3c-13.45-12.52-21.82-27.91-25.33-45.95c-0.2-1.01-0.12-1.91,0.29-2.89
			c10.82-25.7,21.09-51.62,30.87-77.73c0.37-0.98,0.91-1.69,1.76-2.31c10.89-7.92,22.97-12.97,36.25-15.13
			C298.16,120.48,302.59,120.13,307.05,120.14z M307.49,162.47c-22.95-0.04-41.52,18.47-41.56,41.43
			c-0.04,22.87,18.49,41.46,41.36,41.5c22.93,0.05,41.48-18.41,41.63-41.25C349.07,181.37,330.51,162.43,307.49,162.47z"/>
		<path class="st0" d="M465.38,75.67c15.43-2.44,30.76-4.9,46.25-7.31c0,17.36,0,34.51,0,51.78c14.21,0,28.3,0,42.47,0
			c0,12.86,0,25.6,0,38.48c-14.14,0-28.22,0-42.38,0c-0.04,0.48-0.08,0.84-0.08,1.2c0,19.09-0.02,38.17,0.01,57.26
			c0.01,5.59,0.65,11.12,2.48,16.44c0.47,1.37,1.06,2.71,1.66,4.03c2.03,4.47,5.52,7.29,10.12,8.84c3.67,1.24,7.47,1.62,11.31,1.6
			c9.38-0.04,18.55-1.45,27.48-4.36c0.75-0.24,1.49-0.5,2.24-0.75c0.03-0.01,0.08,0.02,0.31,0.07c2.14,11.83,4.3,23.74,6.46,35.62
			c-0.28,0.19-0.4,0.3-0.55,0.36c-7.83,3.07-15.85,5.53-24.17,6.87c-7.67,1.24-15.4,1.42-23.14,1.23
			c-6.17-0.15-12.28-0.8-18.29-2.23c-9.27-2.19-17.63-6.18-24.67-12.68c-5.8-5.36-9.79-11.91-12.45-19.3
			c-1.88-5.23-2.93-10.65-3.73-16.12c-1.05-7.22-1.33-14.48-1.32-21.76c0.02-45.82,0.01-91.64,0.01-137.46
			C465.38,76.91,465.38,76.33,465.38,75.67z"/>
		<path class="st0" d="M450.04,283.29c-15.44,0-30.77,0-46.17,0c0-69.2,0-138.32,0-207.62c15.34-2.44,30.7-4.89,46.17-7.31
			C450.04,140.09,450.04,211.62,450.04,283.29z"/>
	</g>
	<g>
		<path class="st2" d="M669.99,283.38V177.73l44.96-109.41v56.95c3.02-1,6.89-1.96,11.62-2.87c4.73-0.9,9.3-1.36,13.73-1.36
			c12.87,0,23.58,1.76,32.14,5.28c8.55,3.52,15.39,8.5,20.52,14.93c5.13,6.44,8.75,14.08,10.86,22.93
			c2.11,8.85,3.17,18.71,3.17,29.57v89.62h-44.96V199.2c0-14.48-1.86-24.74-5.58-30.78c-3.72-6.03-10.61-9.05-20.67-9.05
			c-4.03,0-7.8,0.35-11.32,1.06c-3.52,0.71-6.69,1.46-9.51,2.26v120.69H669.99z"/>
		<path class="st2" d="M821.9,205.23c0-14.08,2.16-26.4,6.49-36.96c4.32-10.56,10.01-19.36,17.05-26.4
			c7.04-7.04,15.13-12.37,24.29-15.99c9.15-3.62,18.56-5.43,28.21-5.43c22.53,0,40.33,6.89,53.41,20.67
			c13.07,13.78,19.61,34.05,19.61,60.8c0,2.62-0.1,5.48-0.3,8.6c-0.2,3.12-0.41,5.88-0.61,8.3H868.07c1,9.25,5.33,16.6,12.97,22.03
			c7.64,5.43,17.9,8.15,30.78,8.15c8.25,0,16.34-0.75,24.29-2.26c7.94-1.51,14.43-3.37,19.46-5.58l6.03,36.51
			c-2.41,1.21-5.63,2.41-9.66,3.62c-4.03,1.21-8.5,2.26-13.43,3.17c-4.93,0.9-10.21,1.66-15.84,2.26
			c-5.63,0.61-11.27,0.91-16.9,0.91c-14.29,0-26.7-2.11-37.27-6.34c-10.56-4.23-19.31-10.01-26.25-17.35
			c-6.94-7.34-12.07-16.04-15.39-26.1C823.56,227.76,821.9,216.9,821.9,205.23z M927.51,188.03c-0.2-3.82-0.86-7.54-1.96-11.16
			c-1.11-3.62-2.82-6.84-5.13-9.66c-2.31-2.82-5.23-5.13-8.75-6.94c-3.52-1.81-7.9-2.72-13.13-2.72c-5.03,0-9.35,0.86-12.97,2.56
			c-3.62,1.71-6.64,3.98-9.05,6.79c-2.41,2.82-4.27,6.09-5.58,9.81c-1.31,3.72-2.26,7.5-2.87,11.32H927.51z"/>
		<path class="st2" d="M1082.12,164.5c-4.03-1-8.75-2.06-14.18-3.17c-5.43-1.1-11.27-1.66-17.5-1.66c-2.82,0-6.19,0.25-10.11,0.75
			c-3.92,0.5-6.89,1.06-8.9,1.66v121.3h-44.96V133.11c8.04-2.82,17.55-5.48,28.51-7.99c10.96-2.51,23.18-3.77,36.66-3.77
			c2.41,0,5.33,0.15,8.75,0.45c3.42,0.3,6.84,0.71,10.26,1.21c3.42,0.5,6.84,1.11,10.26,1.81c3.42,0.71,6.34,1.56,8.75,2.57
			L1082.12,164.5z"/>
		<path class="st2" d="M1085.45,205.23c0-14.08,2.16-26.4,6.49-36.96c4.32-10.56,10.01-19.36,17.05-26.4
			c7.04-7.04,15.13-12.37,24.29-15.99c9.15-3.62,18.56-5.43,28.21-5.43c22.53,0,40.33,6.89,53.41,20.67
			c13.07,13.78,19.61,34.05,19.61,60.8c0,2.62-0.1,5.48-0.3,8.6c-0.2,3.12-0.41,5.88-0.61,8.3h-101.99c1,9.25,5.33,16.6,12.97,22.03
			c7.64,5.43,17.9,8.15,30.78,8.15c8.25,0,16.34-0.75,24.29-2.26c7.94-1.51,14.43-3.37,19.46-5.58l6.03,36.51
			c-2.41,1.21-5.63,2.41-9.66,3.62c-4.03,1.21-8.5,2.26-13.43,3.17c-4.93,0.9-10.21,1.66-15.84,2.26
			c-5.63,0.61-11.27,0.91-16.9,0.91c-14.29,0-26.7-2.11-37.27-6.34c-10.56-4.23-19.31-10.01-26.25-17.35
			c-6.94-7.34-12.07-16.04-15.39-26.1C1087.12,227.76,1085.45,216.9,1085.45,205.23z M1191.06,188.03
			c-0.2-3.82-0.86-7.54-1.96-11.16c-1.11-3.62-2.82-6.84-5.13-9.66c-2.31-2.82-5.23-5.13-8.75-6.94c-3.52-1.81-7.9-2.72-13.13-2.72
			c-5.03,0-9.35,0.86-12.97,2.56c-3.62,1.71-6.64,3.98-9.05,6.79c-2.41,2.82-4.27,6.09-5.58,9.81c-1.31,3.72-2.26,7.5-2.86,11.32
			H1191.06z"/>
		<path class="st2" d="M698.03,68.27l-17.42,41.26h-48.66v173.73h-46.01V109.53h-63.56V68.27H698.03z"/>
	</g>
</g>
</svg>
