<?xml version="1.0" encoding="utf-8"?>
<!-- Generator: Adobe Illustrator 26.3.1, SVG Export Plug-In . SVG Version: 6.00 Build 0)  -->
<svg version="1.1" id="Layer_1" xmlns="http://www.w3.org/2000/svg" xmlns:xlink="http://www.w3.org/1999/xlink" x="0px" y="0px"
	 viewBox="0 0 453.2 349.5" style="enable-background:new 0 0 453.2 349.5;" xml:space="preserve">
<style type="text/css">
	.st0{display:none;}
	.st1{display:inline;fill:#FFFFFF;}
	.st2{fill:#FFFFFF;}
	.st3{font-family:'WalkwayUltraBold';}
	.st4{font-size:48px;}
	.st5{font-family:'WalkwaySemiBold';}
	.st6{font-size:40px;}
	.st7{fill:#FFFFFF;stroke:#FFFFFF;stroke-miterlimit:10;}
	.st8{font-family:'ProximaNova-Semibold';}
	.st9{font-size:60px;}
	.st10{letter-spacing:7.4;}
	.st11{letter-spacing:8.5;}
	.st12{fill:#FFFFFF;stroke:#FFFFFF;stroke-width:0.25;stroke-miterlimit:10;}
</style>
<g id="Background" class="st0">
	<rect id="Blue_backgound" x="-143.8" y="-96.5" class="st1" width="744" height="455"/>
</g>
<g id="EDC_Logo">
	<g id="Stars">
		<polygon class="st2" points="224.6,246.5 214.5,239.2 204.4,246.6 208.2,234.7 198.1,227.4 210.6,227.4 214.4,215.5 218.3,227.3 
			230.8,227.3 220.7,234.7 		"/>
		<polygon class="st2" points="280.5,261.6 270.4,254.3 260.4,261.7 264.2,249.8 254.1,242.5 266.5,242.5 270.4,230.6 274.2,242.5 
			286.7,242.4 276.6,249.8 		"/>
		<polygon class="st2" points="340.4,243.5 330.3,236.2 320.2,243.6 324,231.7 313.9,224.4 326.4,224.4 330.2,212.5 334.1,224.3 
			346.6,224.3 336.5,231.7 		"/>
		<polygon class="st2" points="376.9,202.9 366.8,195.5 356.8,202.9 360.6,191 350.5,183.7 362.9,183.7 366.8,171.8 370.6,183.7 
			383.1,183.6 373,191 		"/>
		<polygon class="st2" points="389.9,151.3 379.8,144 369.7,151.3 373.5,139.4 363.4,132.1 375.9,132.1 379.7,120.2 383.6,132.1 
			396.1,132.1 386,139.4 		"/>
		<polygon class="st2" points="376.9,99.7 366.8,92.4 356.8,99.8 360.6,87.9 350.5,80.6 362.9,80.5 366.8,68.7 370.6,80.5 
			383.1,80.5 373,87.8 		"/>
		<polygon class="st2" points="340.4,58.7 330.3,51.4 320.2,58.8 324,46.9 313.9,39.6 326.4,39.6 330.2,27.7 334.1,39.5 346.6,39.5 
			336.5,46.9 		"/>
		<polygon class="st2" points="284.7,41 274.6,33.7 264.5,41.1 268.4,29.2 258.3,21.9 270.7,21.9 274.6,10 278.5,21.9 290.9,21.8 
			280.9,29.2 		"/>
		<polygon class="st2" points="224.6,246.5 214.5,239.2 204.4,246.6 208.2,234.7 198.1,227.4 210.6,227.4 214.4,215.5 218.3,227.3 
			230.8,227.3 220.7,234.7 		"/>
		<polygon class="st2" points="280.5,261.6 270.4,254.3 260.4,261.7 264.2,249.8 254.1,242.5 266.5,242.5 270.4,230.6 274.2,242.5 
			286.7,242.4 276.6,249.8 		"/>
		<polygon class="st2" points="340.4,243.5 330.3,236.2 320.2,243.6 324,231.7 313.9,224.4 326.4,224.4 330.2,212.5 334.1,224.3 
			346.6,224.3 336.5,231.7 		"/>
		<polygon class="st2" points="376.9,202.9 366.8,195.5 356.8,202.9 360.6,191 350.5,183.7 362.9,183.7 366.8,171.8 370.6,183.7 
			383.1,183.6 373,191 		"/>
		<polygon class="st2" points="389.9,151.3 379.8,144 369.7,151.3 373.5,139.4 363.4,132.1 375.9,132.1 379.7,120.2 383.6,132.1 
			396.1,132.1 386,139.4 		"/>
		<polygon class="st2" points="376.9,99.7 366.8,92.4 356.8,99.8 360.6,87.9 350.5,80.6 362.9,80.5 366.8,68.7 370.6,80.5 
			383.1,80.5 373,87.8 		"/>
		<polygon class="st2" points="340.4,58.7 330.3,51.4 320.2,58.8 324,46.9 313.9,39.6 326.4,39.6 330.2,27.7 334.1,39.5 346.6,39.5 
			336.5,46.9 		"/>
		<polygon class="st2" points="284.7,41 274.6,33.7 264.5,41.1 268.4,29.2 258.3,21.9 270.7,21.9 274.6,10 278.5,21.9 290.9,21.8 
			280.9,29.2 		"/>
	</g>
	<text transform="matrix(1 0 0 1 104.88 100.54)" class="st2 st3 st4">European</text>
	<text transform="matrix(1 0 0 1 61.97 148.54)" class="st2 st3 st4">Democracy</text>
	<text transform="matrix(1 0 0 1 126.92 196.54)" class="st2 st5 st6">Consulting</text>
</g>
<g id="EDCS_elements">
	<text transform="matrix(0.94 0 0 1 68.9697 337.5002)" class="st7 st8 st9 st10">S</text>
	<text transform="matrix(0.94 0 0 1 110.3672 337.5002)" class="st7 st8 st9 st11">TIFTUNG</text>
	<line class="st12" x1="63.2" y1="279.5" x2="396.2" y2="279.5"/>
</g>
</svg>
