<?xml version="1.0" standalone="no"?>
<!DOCTYPE svg PUBLIC "-//W3C//DTD SVG 20010904//EN"
 "http://www.w3.org/TR/2001/REC-SVG-20010904/DTD/svg10.dtd">
<svg version="1.0" xmlns="http://www.w3.org/2000/svg"
 width="370.000000pt" height="370.000000pt" viewBox="0 0 370.000000 370.000000"
 preserveAspectRatio="xMidYMid meet">
<metadata>
Created by potrace 1.14, written by Peter Selinger 2001-2017
</metadata>
<g transform="translate(0.000000,370.000000) scale(0.100000,-0.100000)"
fill="#000000" stroke="none">
<path d="M2274 3435 l-17 -54 -66 -3 -66 -3 35 -22 c76 -50 74 -45 55 -103 -9
-28 -15 -53 -13 -56 3 -2 22 9 44 26 21 16 43 30 47 30 5 0 28 -13 52 -30 24
-16 46 -30 49 -30 3 0 -4 25 -15 57 -10 31 -18 57 -17 58 2 1 25 17 52 36 l48
34 -64 3 -65 3 -17 54 c-9 30 -19 55 -21 55 -2 0 -12 -25 -21 -55z"/>
<path d="M2833 3264 l-20 -59 -62 -3 -63 -3 49 -36 c26 -20 49 -37 51 -38 1
-1 -7 -27 -17 -58 -11 -32 -18 -57 -15 -57 3 0 26 16 51 35 l46 35 48 -36 c27
-20 49 -32 49 -27 0 5 -7 31 -17 58 l-16 49 28 21 c77 56 76 54 8 55 l-62 0
-19 62 -19 61 -20 -59z"/>
<path d="M620 2750 l0 -160 125 0 c104 0 125 2 125 15 0 12 -19 15 -110 15
l-110 0 0 65 0 65 100 0 c60 0 100 4 100 10 0 6 -40 10 -100 10 l-100 0 0 60
0 60 110 0 c67 0 110 4 110 10 0 6 -48 10 -125 10 l-125 0 0 -160z"/>
<path d="M3197 2849 l-17 -59 -63 -1 -62 0 29 -22 c76 -58 71 -47 51 -106 -9
-29 -15 -54 -13 -57 3 -2 25 11 50 30 l45 35 48 -35 c27 -18 50 -32 52 -31 1
2 -5 28 -15 58 l-19 54 50 37 49 37 -62 3 -63 3 -19 54 c-10 30 -19 55 -21 57
-1 1 -10 -24 -20 -57z"/>
<path d="M1225 2823 c-11 -3 -26 -10 -34 -17 -11 -8 -15 -8 -18 2 -3 6 -11 12
-19 12 -11 0 -14 -22 -14 -115 0 -96 3 -115 15 -115 12 0 15 15 15 71 0 94 25
138 78 139 13 0 22 6 22 15 0 15 -9 17 -45 8z"/>
<path d="M1343 2816 c-60 -27 -82 -96 -54 -165 39 -92 203 -79 232 18 31 103
-77 192 -178 147z m118 -29 c66 -50 43 -158 -37 -173 -101 -19 -165 104 -87
166 29 23 98 27 124 7z"/>
<path d="M1625 2814 c-19 -10 -31 -11 -33 -5 -2 6 -10 11 -18 11 -11 0 -14
-28 -14 -155 0 -131 2 -155 15 -155 11 0 15 12 15 49 l0 49 44 -16 c87 -32
166 21 166 111 0 53 -25 96 -65 113 -44 18 -73 18 -110 -2z m120 -39 c19 -18
25 -35 25 -70 0 -62 -32 -95 -90 -95 -58 0 -90 33 -90 95 0 35 6 52 25 70 34
35 96 35 130 0z"/>
<path d="M1880 2813 c-74 -38 -89 -136 -30 -195 24 -24 36 -28 83 -28 45 0 61
5 86 26 17 14 31 32 31 40 0 20 -8 18 -47 -16 -46 -41 -94 -41 -134 -1 -54 55
-44 62 83 59 l112 -3 8 -31 c4 -17 17 -39 28 -49 28 -25 110 -32 149 -12 26
13 31 13 31 1 0 -8 7 -14 15 -14 13 0 15 20 15 120 0 100 -2 120 -15 120 -9 0
-15 -9 -15 -22 0 -21 0 -21 -21 -2 -30 27 -108 26 -146 -2 -15 -11 -33 -35
-39 -53 l-11 -33 -9 33 c-19 65 -107 97 -174 62z m125 -38 c46 -45 35 -55 -64
-55 -50 0 -92 4 -95 9 -4 5 6 23 20 40 22 26 33 31 70 31 34 0 51 -6 69 -25z
m250 0 c34 -33 34 -93 1 -132 -32 -37 -103 -40 -138 -5 -33 32 -32 101 1 136
34 36 101 37 136 1z"/>
<path d="M2408 2816 c-16 -8 -28 -11 -28 -5 0 5 -7 9 -15 9 -12 0 -15 -19 -15
-115 0 -96 3 -115 15 -115 12 0 15 16 15 85 0 100 15 125 76 125 68 0 74 -9
74 -115 0 -78 3 -95 15 -95 12 0 15 17 15 91 0 103 -7 123 -51 138 -43 15 -68
14 -101 -3z"/>
<path d="M890 2730 c0 -83 2 -93 25 -115 19 -19 35 -25 70 -25 26 0 55 5 66
10 13 7 19 7 19 0 0 -5 7 -10 15 -10 12 0 15 19 15 115 0 96 -3 115 -15 115
-12 0 -15 -16 -15 -84 0 -79 -2 -86 -26 -105 -32 -25 -71 -27 -102 -5 -20 14
-22 23 -22 105 0 72 -3 89 -15 89 -12 0 -15 -17 -15 -90z"/>
<path d="M190 2269 l0 -161 93 4 c145 6 200 52 199 164 -1 113 -53 154 -199
154 l-93 0 0 -161z m195 127 c41 -17 62 -48 69 -101 8 -55 -12 -105 -53 -132
-28 -19 -47 -23 -107 -23 l-74 0 0 135 0 135 65 0 c36 0 81 -6 100 -14z"/>
<path d="M3326 2335 l-17 -55 -60 0 c-32 0 -59 -3 -59 -7 0 -5 20 -21 45 -38
24 -16 45 -35 45 -41 0 -6 -7 -31 -15 -54 -22 -61 -19 -65 23 -33 59 47 59 47
112 8 28 -20 50 -35 50 -32 0 2 -9 29 -19 60 l-20 56 52 38 52 38 -66 3 -66 3
-17 54 c-9 30 -18 55 -20 55 -1 0 -10 -25 -20 -55z"/>
<path d="M570 2332 c-73 -36 -89 -135 -30 -194 24 -24 36 -28 83 -28 45 0 61
5 86 26 17 14 31 32 31 40 0 20 -8 18 -47 -16 -46 -41 -94 -41 -134 -1 -53 54
-43 61 82 61 l112 0 -6 36 c-7 44 -23 63 -64 81 -43 17 -71 16 -113 -5z m125
-37 c46 -45 35 -55 -64 -55 -50 0 -92 4 -95 9 -4 5 6 23 20 40 22 26 33 31 70
31 34 0 51 -6 69 -25z"/>
<path d="M828 2336 c-16 -8 -28 -11 -28 -5 0 5 -7 9 -15 9 -12 0 -15 -19 -15
-115 0 -96 3 -115 15 -115 12 0 15 16 15 85 0 98 16 125 73 125 51 0 57 -13
57 -117 0 -76 3 -93 15 -93 12 0 15 16 15 85 0 98 16 125 73 125 51 0 57 -13
57 -117 0 -76 3 -93 15 -93 12 0 15 18 15 98 0 84 -3 101 -19 116 -28 25 -83
31 -119 12 -27 -14 -33 -14 -59 -1 -35 19 -61 19 -95 1z"/>
<path d="M1213 2336 c-60 -27 -82 -96 -54 -165 39 -92 203 -79 232 18 31 103
-77 192 -178 147z m118 -29 c66 -50 43 -158 -37 -173 -101 -19 -165 104 -87
166 29 23 98 27 124 7z"/>
<path d="M1473 2336 c-79 -36 -85 -179 -8 -214 59 -27 156 -5 170 39 10 32 -2
35 -29 6 -42 -45 -105 -48 -146 -7 -30 30 -27 103 5 135 35 36 105 35 133 0
20 -25 42 -33 42 -16 0 6 -10 22 -23 36 -28 33 -96 43 -144 21z"/>
<path d="M1755 2343 c-11 -3 -26 -10 -34 -17 -11 -8 -15 -8 -18 2 -3 6 -11 12
-19 12 -11 0 -14 -22 -14 -115 0 -96 3 -115 15 -115 12 0 15 15 15 71 0 94 25
138 78 139 13 0 22 6 22 15 0 15 -9 17 -45 8z"/>
<path d="M1883 2336 c-44 -20 -66 -58 -65 -112 0 -52 22 -91 58 -104 37 -14
95 -12 127 4 23 13 27 13 27 0 0 -8 7 -14 15 -14 13 0 15 20 15 120 0 100 -2
120 -15 120 -9 0 -15 -9 -15 -22 0 -20 -1 -20 -19 -4 -26 24 -89 29 -128 12z
m122 -41 c34 -33 34 -93 1 -132 -32 -37 -103 -40 -138 -5 -33 32 -32 101 1
136 34 36 101 37 136 1z"/>
<path d="M2153 2336 c-79 -36 -85 -179 -8 -214 59 -27 156 -5 170 39 10 32 -2
35 -29 6 -42 -45 -105 -48 -146 -7 -30 30 -27 103 5 135 35 36 105 35 133 0
20 -25 42 -33 42 -16 0 6 -10 22 -23 36 -28 33 -96 43 -144 21z"/>
<path d="M2350 2251 c0 -79 3 -93 23 -116 28 -33 84 -43 126 -22 30 15 31 15
31 -8 0 -30 -21 -46 -69 -52 -44 -6 -91 16 -91 42 0 8 -7 15 -15 15 -23 0 -18
-28 11 -57 23 -23 31 -25 91 -21 97 6 103 16 103 179 0 108 -2 129 -15 129
-12 0 -15 -16 -15 -85 0 -102 -15 -125 -79 -125 -61 0 -71 17 -71 121 0 72 -3
89 -15 89 -12 0 -15 -17 -15 -89z"/>
<path d="M910 1888 c-13 -7 -35 -29 -48 -48 -20 -29 -23 -44 -20 -88 6 -73 45
-113 116 -120 49 -4 122 19 122 39 0 5 -15 0 -32 -11 -40 -24 -98 -26 -139 -4
-76 39 -76 179 0 218 42 22 109 20 151 -5 l35 -21 -22 23 c-27 28 -123 38
-163 17z"/>
<path d="M1964 1765 c0 -77 2 -107 3 -67 2 40 2 103 0 140 -2 37 -3 4 -3 -73z"/>
<path d="M2121 1884 c0 -11 3 -14 6 -6 3 7 2 16 -1 19 -3 4 -6 -2 -5 -13z"/>
<path d="M2042 1847 c-1 -18 -9 -31 -24 -37 l-23 -9 22 0 c21 -1 22 -6 26 -88
l3 -88 2 87 c2 81 3 87 25 91 22 4 22 4 0 6 -17 1 -23 9 -26 34 -3 29 -4 30
-5 4z"/>
<path d="M3196 1815 l-17 -55 -62 0 -62 -1 23 -19 c13 -11 35 -28 49 -38 l25
-18 -16 -54 c-9 -29 -14 -55 -13 -57 2 -1 21 10 43 27 21 16 45 30 53 30 7 0
31 -14 53 -31 21 -17 41 -29 43 -27 3 3 -3 29 -14 60 l-19 54 51 35 50 34 -63
5 -63 5 -16 47 c-9 26 -19 49 -22 52 -3 3 -13 -19 -23 -49z"/>
<path d="M1171 1816 c-57 -32 -68 -111 -22 -157 56 -56 153 -29 167 47 16 87
-69 152 -145 110z m102 -16 c31 -25 41 -62 27 -106 -13 -39 -35 -54 -79 -54
-43 0 -60 9 -76 41 -23 43 -18 77 14 110 35 35 77 38 114 9z"/>
<path d="M1381 1814 c-19 -14 -25 -14 -32 -3 -5 9 -8 -25 -7 -86 l1 -100 7 79
c7 87 27 116 79 116 52 0 65 -20 72 -111 l6 -84 1 78 c2 70 0 80 -23 102 -28
29 -70 32 -104 9z"/>
<path d="M1583 1820 c-24 -10 -37 -39 -27 -63 3 -9 25 -22 48 -28 69 -18 86
-28 86 -47 0 -28 -20 -42 -59 -42 -44 0 -57 8 -70 40 -9 23 -10 23 -10 4 -1
-33 30 -54 82 -54 38 0 49 4 62 24 13 19 14 29 6 45 -11 20 -15 22 -88 41 -36
9 -43 15 -43 36 0 54 90 57 117 4 12 -24 13 -24 13 -3 0 42 -62 65 -117 43z"/>
<path d="M2124 1730 c0 -58 1 -81 3 -52 2 28 2 76 0 105 -2 28 -3 5 -3 -53z"/>
<path d="M2211 1814 c-19 -14 -25 -14 -32 -3 -5 9 -8 -25 -7 -86 l1 -100 7 79
c7 87 27 116 79 116 52 0 65 -20 72 -111 l6 -84 1 78 c2 70 0 80 -23 102 -28
29 -70 32 -104 9z"/>
<path d="M2420 1817 c-34 -17 -52 -55 -46 -100 9 -75 67 -104 137 -69 l41 21
-6 -32 c-3 -18 -16 -40 -27 -49 -36 -30 -119 -18 -119 17 0 8 -5 15 -10 15
-16 0 7 -37 30 -50 30 -16 86 -12 111 9 22 18 24 27 26 133 1 62 -1 105 -3 96
-5 -16 -8 -15 -37 2 -37 23 -62 25 -97 7z m96 -20 c21 -19 27 -32 27 -66 0
-50 -22 -77 -70 -87 -27 -5 -37 -1 -63 24 -40 41 -41 83 -1 123 36 35 70 37
107 6z"/>
<path d="M1752 1748 c-2 -66 1 -81 18 -98 24 -24 86 -27 117 -5 20 14 22 13
26 -2 3 -10 5 27 4 82 0 100 0 100 -7 28 -8 -88 -26 -113 -80 -113 -51 0 -64
19 -71 109 l-6 76 -1 -77z"/>
<path d="M2834 1415 l-21 -60 -63 -3 -63 -3 51 -35 50 -35 -18 -60 c-19 -63
-20 -63 44 -17 l39 28 48 -35 c27 -19 49 -31 49 -27 0 5 -7 30 -17 57 -18 54
-21 47 55 104 l27 20 -61 1 -60 0 -20 63 -20 62 -20 -60z"/>
<path d="M1674 1385 l-19 -60 -60 -5 -60 -5 48 -33 c26 -18 47 -34 47 -36 0
-2 -9 -28 -19 -59 -11 -32 -17 -57 -14 -57 3 0 22 13 42 28 55 43 56 43 92 16
69 -51 70 -51 48 12 -10 32 -19 58 -19 60 0 1 21 18 46 36 l47 33 -59 5 -59 5
-21 60 -21 59 -19 -59z"/>
<path d="M2234 1235 l-21 -60 -62 -3 -63 -3 44 -31 c24 -17 46 -34 51 -37 4
-4 -2 -33 -12 -64 -11 -31 -18 -57 -15 -57 3 0 26 16 51 35 l46 35 48 -35 c54
-38 58 -33 33 36 -15 44 -15 44 12 64 76 56 75 54 8 55 l-60 0 -20 63 -20 62
-20 -60z"/>
<path d="M345 617 c-49 -23 -70 -54 -70 -102 0 -58 28 -87 108 -110 82 -24
107 -40 107 -70 0 -55 -77 -71 -153 -30 l-46 24 -16 -22 c-15 -21 -14 -23 10
-44 53 -46 138 -55 205 -20 55 27 78 78 59 134 -13 41 -38 59 -109 79 -74 21
-100 39 -100 69 0 47 68 59 135 25 38 -19 41 -19 53 -3 16 23 11 34 -25 56
-42 24 -120 31 -158 14z"/>
<path d="M670 600 c0 -30 1 -30 55 -30 l55 0 0 -175 0 -175 30 0 30 0 0 175 0
175 60 0 60 0 0 30 0 30 -145 0 -145 0 0 -30z"/>
<path d="M1100 425 l0 -205 30 0 30 0 0 205 0 205 -30 0 -30 0 0 -205z"/>
<path d="M1330 425 l0 -205 30 0 30 0 0 85 0 85 95 0 95 0 0 30 0 30 -95 0
-95 0 0 60 0 60 100 0 100 0 0 30 0 30 -130 0 -130 0 0 -205z"/>
<path d="M1720 600 c0 -30 1 -30 55 -30 l55 0 0 -175 0 -175 30 0 30 0 0 175
0 175 60 0 60 0 0 30 0 30 -145 0 -145 0 0 -30z"/>
<path d="M2150 498 c0 -150 9 -194 46 -232 56 -56 168 -58 229 -5 43 38 55 92
55 249 l0 120 -35 0 -35 0 0 -146 0 -146 -29 -29 c-41 -40 -91 -40 -132 0
l-29 29 0 146 0 146 -35 0 -35 0 0 -132z"/>
<path d="M2640 425 l0 -205 30 0 29 0 3 148 3 147 99 -147 c89 -133 102 -148
128 -148 l28 0 0 205 0 205 -30 0 -29 0 -3 -141 -3 -140 -94 140 c-90 134 -96
141 -128 141 l-33 0 0 -205z"/>
<path d="M3245 616 c-85 -32 -145 -138 -128 -228 16 -85 62 -136 142 -158 54
-14 103 -6 159 26 l42 25 0 74 0 75 -85 0 -85 0 0 -30 c0 -30 1 -30 55 -30 54
0 55 0 55 -30 0 -53 -86 -78 -151 -45 -93 49 -90 214 5 259 48 22 77 20 121
-10 33 -22 41 -24 61 -13 29 15 19 38 -30 68 -45 28 -111 35 -161 17z"/>
</g>
</svg>
